# xmcd
#
# Track frame offsets:
#	150
#	20819
#	36306
#	52266
#	74010
#	91814
#	107710
#	123658
#	140830
#	155006
#	171993
#	198392
#
# Disc length: 2889 seconds
#
# Revision: 0
# Processed by: cddbd v1.5.1PL2 Copyright (c) Steve Scherf et al.
# Submitted via: dBpowerAMP V4.0
#
DISCID=be0b470c
DTITLE=Manuel Capella - Entremezclado
DYEAR=1900
DGENRE=
TTITLE0=por la union y por la blanca
TTITLE1=las dos canciones
TTITLE2=milonga viuda
TTITLE3=el galleguayo
TTITLE4=el baile de la rosa y de la luna
TTITLE5=banbula de angel miguel
TTITLE6=candombe del uno al diez
TTITLE7=el bailarin solitario
TTITLE8=candombe del mar
TTITLE9=siempre montevideo
TTITLE10=la cara pintada
TTITLE11=volve siempre uruguay
EXTD=
EXTT0=
EXTT1=
EXTT2=
EXTT3=
EXTT4=
EXTT5=
EXTT6=
EXTT7=
EXTT8=
EXTT9=
EXTT10=
EXTT11=
PLAYORDER=
